<?xml version="1.0" standalone="no"?>
<!DOCTYPE svg PUBLIC "-//W3C//DTD SVG 20010904//EN"
 "http://www.w3.org/TR/2001/REC-SVG-20010904/DTD/svg10.dtd">
<svg version="1.0" xmlns="http://www.w3.org/2000/svg"
 width="300.000000pt" height="300.000000pt" viewBox="0 0 300.000000 300.000000"
 preserveAspectRatio="xMidYMid meet">
<metadata>
Created by potrace 1.14, written by Peter Selinger 2001-2017
</metadata>
<g transform="translate(0.000000,300.000000) scale(0.100000,-0.100000)"
fill="#000000" stroke="none">
<path d="M844 2688 c1 -62 -2 -121 -6 -130 -5 -10 -5 -18 -1 -18 5 0 8 -20 8
-45 0 -25 -3 -45 -7 -45 -4 0 -4 -10 1 -22 5 -13 9 -27 10 -33 1 -8 467 -14
1209 -15 l93 0 -3 -67 -3 -68 -125 -68 c-69 -38 -163 -89 -210 -114 -47 -25
-114 -62 -150 -81 -36 -19 -132 -72 -215 -117 -143 -78 -226 -123 -360 -195
-33 -18 -112 -61 -175 -95 -63 -34 -151 -82 -195 -105 -100 -53 -155 -91 -200
-137 -37 -38 -89 -137 -100 -192 -7 -34 -9 -554 -2 -581 2 -8 7 -32 12 -53 4
-20 11 -40 16 -43 5 -3 9 -12 9 -20 0 -9 6 -21 13 -29 6 -7 28 -33 47 -58 19
-25 62 -62 95 -82 115 -68 117 -69 633 -70 255 0 467 2 470 5 12 8 8 410 -3
411 -5 1 -201 2 -435 3 l-425 1 0 92 c0 50 -3 95 -7 99 -4 3 -4 14 1 23 4 9 7
64 6 122 l-1 106 45 25 c109 58 216 116 356 193 83 45 184 100 225 123 41 22
116 62 165 89 50 27 126 69 170 92 44 24 107 58 140 76 33 18 90 49 127 69 37
20 70 36 73 36 2 0 5 -240 5 -532 0 -293 0 -548 0 -566 l0 -32 217 2 218 3 0
880 c1 619 -3 897 -11 936 -30 151 -140 271 -292 319 -53 17 -109 19 -748 19
l-692 1 2 -112z"/>
</g>
</svg>
